# Blender v2.79 (sub 0) OBJ File: 'CatHuman_Base.blend'
# www.blender.org
o Arrow_Plane
v -0.274653 0.000000 1.542315
v 0.274653 0.000000 1.542315
v -0.325744 0.000000 0.100000
v 0.325744 0.000000 0.100000
v -0.100239 0.000000 -1.701480
v 0.100239 0.000000 -1.701480
v 0.000000 0.000000 -1.769635
v -1.041036 0.000000 0.094436
v 1.041036 0.000000 0.094436
v -1.073200 0.000000 0.027663
v 1.073200 0.000000 0.027663
v -0.325744 0.000000 1.471169
v 0.325744 0.000000 1.471169
vt 0.651763 0.021481
vt 0.348237 0.435488
vt 0.348237 0.021481
vt 0.453299 0.979421
vt 0.500000 1.000000
vt 0.651763 0.435488
vt 0.546701 0.979421
vt 1.000000 0.457329
vt 0.000000 0.457329
vt 0.014985 0.437168
vt 0.651763 0.000000
vt 0.348237 0.000000
vt 0.985015 0.437168
vn 0.0000 1.0000 0.0000
s off
f 13/1/1 3/2/1 12/3/1
f 5/4/1 3/2/1 7/5/1
f 4/6/1 6/7/1 7/5/1
f 3/2/1 4/6/1 7/5/1
f 11/8/1 6/7/1 4/6/1
f 3/2/1 10/9/1 8/10/1
f 2/11/1 12/3/1 1/12/1
f 3/2/1 5/4/1 10/9/1
f 9/13/1 11/8/1 4/6/1
f 13/1/1 4/6/1 3/2/1
f 2/11/1 13/1/1 12/3/1
