# Blender v2.79 (sub 0) OBJ File: 'StoreEnvironment.blend'
# www.blender.org
o Prop_Juice_1_Cube.023
v 0.036236 -0.129973 0.036236
v 0.011779 0.159284 0.011779
v 0.036236 -0.129973 -0.036236
v 0.011779 0.159284 -0.011779
v 0.050138 -0.129973 0.000000
v 0.016299 0.159284 0.000000
v 0.011779 0.136349 -0.011779
v 0.011779 0.136349 0.011779
v 0.016299 0.136349 0.000000
v 0.038505 0.061592 -0.038505
v 0.038505 0.061592 0.038505
v 0.053277 0.061592 0.000000
v 0.038505 0.007346 -0.038505
v 0.038505 0.007346 0.038505
v 0.053277 0.007346 0.000000
v 0.039767 -0.093283 -0.039767
v 0.039767 -0.093283 0.039767
v 0.055024 -0.093283 0.000000
v 0.029634 0.098971 -0.029634
v 0.029634 0.098971 0.029634
v 0.041003 0.098971 0.000000
v 0.038505 0.052720 0.038505
v 0.038505 0.031714 0.038505
v 0.038505 0.052720 -0.038505
v 0.053277 0.052720 0.000000
v 0.053277 0.042217 0.000000
v 0.038505 0.018204 -0.038505
v 0.053277 0.018204 0.000000
v 0.053277 0.031229 0.000000
v 0.038505 0.043212 -0.038505
v 0.013352 0.142541 -0.013163
v 0.013352 0.142541 0.013163
v 0.018402 0.142541 0.000000
v 0.000000 -0.129973 -0.050138
v 0.000000 -0.121602 0.000000
v 0.000000 0.061592 -0.053277
v 0.000000 0.007346 0.053277
v 0.000000 -0.093283 0.055024
v 0.000000 0.098971 0.041003
v 0.000000 0.098971 -0.041003
v 0.000000 0.142541 -0.018213
v 0.039813 -0.114738 -0.039813
v 0.039813 -0.114738 0.039813
v 0.000000 -0.114738 0.055087
v 0.055087 -0.114738 0.000000
v 0.000000 -0.114738 -0.055087
v 0.035579 -0.021494 -0.035579
v 0.034987 -0.050394 -0.034987
v 0.035579 -0.021494 0.035579
v 0.034987 -0.050394 0.034987
v 0.048410 -0.050394 0.000000
v 0.049229 -0.021494 0.000000
v 0.000000 -0.021494 0.049229
v 0.000000 -0.050394 0.048410
v 0.000000 -0.050394 -0.048410
v 0.000000 -0.021494 -0.049229
v -0.036236 -0.129973 -0.036236
v -0.011779 0.159284 -0.011779
v -0.036236 -0.129973 0.036236
v -0.011779 0.159284 0.011779
v 0.000000 -0.129973 0.050138
v 0.000000 0.159284 0.016299
v -0.050138 -0.129973 0.000000
v -0.016299 0.159284 0.000000
v 0.000000 0.159284 -0.016299
v 0.000000 0.161004 0.000000
v -0.011779 0.136349 0.011779
v -0.011779 0.136349 -0.011779
v 0.000000 0.136349 -0.016299
v -0.016299 0.136349 0.000000
v 0.000000 0.136349 0.016299
v -0.038505 0.061592 0.038505
v -0.038505 0.061592 -0.038505
v -0.053277 0.061592 0.000000
v 0.000000 0.061592 0.053277
v -0.038505 0.007346 0.038505
v -0.038505 0.007346 -0.038505
v 0.000000 0.007346 -0.053277
v -0.053277 0.007346 0.000000
v -0.039767 -0.093283 0.039767
v -0.039767 -0.093283 -0.039767
v 0.000000 -0.093283 -0.055024
v -0.055024 -0.093283 0.000000
v -0.029634 0.098971 0.029634
v -0.029634 0.098971 -0.029634
v -0.041003 0.098971 0.000000
v -0.038505 0.052720 -0.038505
v -0.038505 0.031714 -0.038505
v -0.038505 0.052720 0.038505
v -0.053277 0.052720 0.000000
v -0.053277 0.042217 0.000000
v -0.038505 0.018204 0.038505
v -0.053277 0.018204 0.000000
v -0.053277 0.031229 0.000000
v -0.038505 0.043212 0.038505
v -0.013352 0.142541 0.013163
v -0.013352 0.142541 -0.013163
v -0.018402 0.142541 0.000000
v 0.000000 0.142541 0.018213
v -0.039813 -0.114738 0.039813
v -0.039813 -0.114738 -0.039813
v -0.055087 -0.114738 0.000000
v -0.034987 -0.050394 0.034987
v -0.035579 -0.021494 0.035579
v -0.034987 -0.050394 -0.034987
v -0.035579 -0.021494 -0.035579
v -0.049229 -0.021494 0.000000
v -0.048410 -0.050394 0.000000
vt 0.853278 0.940504
vt 0.853278 0.940504
vt 0.853278 0.940504
vt 0.853278 0.940504
vt 0.853278 0.940504
vt 0.853278 0.940504
vt 0.546339 0.850593
vt 0.546339 0.850593
vt 0.546339 0.850593
vt 0.961792 0.956006
vt 0.961792 0.956006
vt 0.961792 0.956006
vt 0.961792 0.956006
vt 0.546339 0.850593
vt 0.546339 0.850593
vt 0.853278 0.940504
vt 0.853278 0.940504
vt 0.568042 0.839741
vt 0.568042 0.839741
vt 0.568042 0.839741
vt 0.568042 0.839741
vt 0.568042 0.839741
vt 0.568042 0.839741
vt 0.568042 0.839741
vt 0.537038 0.627365
vt 0.537038 0.627365
vt 0.537038 0.627364
vt 0.537038 0.627365
vt 0.537038 0.627364
vt 0.537038 0.627365
vt 0.537038 0.627365
vt 0.537038 0.627365
vt 0.537038 0.627364
vt 0.537038 0.627365
vt 0.537038 0.627365
vt 0.568042 0.839741
vt 0.568042 0.839741
vt 0.568042 0.839741
vt 0.568042 0.839741
vt 0.568042 0.839741
vt 0.568042 0.839741
vt 0.568042 0.839741
vt 0.568042 0.839741
vt 0.568042 0.839741
vt 0.568042 0.839741
vt 0.568042 0.839741
vt 0.568042 0.839741
vt 0.568042 0.839741
vt 0.568042 0.839741
vt 0.568042 0.839741
vt 0.568042 0.839741
vt 0.568042 0.839741
vt 0.568042 0.839741
vt 0.568042 0.839741
vt 0.568042 0.839741
vt 0.546339 0.850593
vt 0.568042 0.839741
vt 0.568042 0.839741
vt 0.568042 0.839741
vt 0.568042 0.839741
vt 0.568042 0.839741
vt 0.961792 0.956006
vt 0.961792 0.956006
vt 0.537038 0.627365
vt 0.537038 0.627364
vt 0.163441 0.645967
vt 0.163441 0.645967
vt 0.163441 0.645967
vt 0.537038 0.627365
vt 0.537038 0.627364
vt 0.163441 0.645967
vt 0.163441 0.645967
vt 0.537038 0.627365
vt 0.537038 0.627364
vt 0.163441 0.645967
vt 0.163441 0.645967
vt 0.163441 0.645967
vt 0.537038 0.627364
vt 0.537038 0.627364
vt 0.853278 0.940504
vt 0.853278 0.940504
vt 0.853278 0.940504
vt 0.853278 0.940504
vt 0.853278 0.940504
vt 0.568042 0.839741
vt 0.568042 0.839741
vt 0.568042 0.839741
vt 0.568042 0.839741
vt 0.568042 0.839741
vt 0.568042 0.839741
vt 0.568042 0.839741
vt 0.568042 0.839741
vt 0.568042 0.839741
vt 0.568042 0.839741
vt 0.853278 0.940504
vt 0.853278 0.940504
vt 0.853278 0.940504
vt 0.853278 0.940504
vt 0.853278 0.940504
vt 0.546339 0.850593
vt 0.961792 0.956006
vt 0.961792 0.956006
vt 0.961792 0.956006
vt 0.546339 0.850593
vt 0.853278 0.940504
vt 0.568042 0.839741
vt 0.568042 0.839741
vt 0.568042 0.839741
vt 0.568042 0.839741
vt 0.568042 0.839741
vt 0.537038 0.627365
vt 0.537038 0.627364
vt 0.537038 0.627365
vt 0.537038 0.627364
vt 0.537038 0.627365
vt 0.537038 0.627364
vt 0.537038 0.627365
vt 0.537038 0.627365
vt 0.568042 0.839741
vt 0.568042 0.839741
vt 0.568042 0.839741
vt 0.568042 0.839741
vt 0.568042 0.839741
vt 0.568042 0.839741
vt 0.568042 0.839741
vt 0.568042 0.839741
vt 0.568042 0.839741
vt 0.546339 0.850593
vt 0.568042 0.839741
vt 0.568042 0.839741
vt 0.568042 0.839741
vt 0.537038 0.627364
vt 0.163441 0.645967
vt 0.163441 0.645967
vt 0.163441 0.645967
vt 0.537038 0.627365
vt 0.537038 0.627364
vt 0.163441 0.645967
vt 0.163441 0.645967
vt 0.537038 0.627365
vt 0.537038 0.627364
vt 0.163441 0.645967
vt 0.163441 0.645967
vt 0.163441 0.645967
vt 0.537038 0.627364
vt 0.537038 0.627364
vt 0.853278 0.940504
vt 0.853278 0.940504
vt 0.853278 0.940504
vt 0.568042 0.839741
vt 0.568042 0.839741
vt 0.568042 0.839741
vt 0.568042 0.839741
vt 0.568042 0.839741
vt 0.853278 0.940504
vt 0.853278 0.940504
vt 0.568042 0.839741
vt 0.568042 0.839741
vt 0.568042 0.839741
vt 0.568042 0.839741
vt 0.568042 0.839741
vt 0.163441 0.645967
vt 0.568042 0.839741
vt 0.568042 0.839741
vt 0.568042 0.839741
vt 0.163441 0.645967
vn 0.3516 0.1099 -0.9297
vn 0.9273 0.1165 0.3558
vn -0.0631 -0.9844 -0.1644
vn 0.1049 0.9937 0.0402
vn 0.1049 0.9937 -0.0402
vn -0.0631 -0.9844 0.1644
vn 0.3516 0.1099 0.9297
vn 0.9273 0.1165 -0.3558
vn 0.7946 0.5251 -0.3048
vn 0.3048 0.5251 0.7946
vn 0.7946 0.5251 0.3048
vn 0.3048 0.5251 -0.7946
vn 0.3582 0.0000 -0.9336
vn 0.9336 0.0000 0.3582
vn 0.3582 0.0000 0.9336
vn 0.9336 0.0000 -0.3582
vn 0.3552 -0.1299 -0.9257
vn 0.9257 -0.1299 0.3552
vn 0.3545 0.1425 0.9241
vn 0.3582 0.0027 -0.9336
vn 0.9336 0.0027 0.3582
vn 0.3582 0.0027 0.9336
vn 0.9336 0.0027 -0.3582
vn 0.9257 -0.1299 -0.3552
vn 0.3552 -0.1299 0.9257
vn 0.9241 0.1425 0.3545
vn 0.3545 0.1425 -0.9241
vn -0.1644 -0.9844 0.0631
vn -0.1644 -0.9844 -0.0631
vn 0.3425 0.2931 -0.8926
vn 0.8926 0.2931 0.3425
vn 0.3425 0.2931 0.8926
vn 0.8926 0.2931 -0.3425
vn 0.0402 0.9937 -0.1049
vn 0.0402 0.9937 0.1049
vn 0.8900 -0.3023 -0.3414
vn 0.3441 -0.2773 0.8970
vn 0.8900 -0.3023 0.3414
vn 0.3441 -0.2773 -0.8970
vn 0.8935 -0.2902 -0.3428
vn 0.3428 -0.2902 0.8935
vn 0.8935 -0.2902 0.3428
vn 0.3428 -0.2902 -0.8935
vn 0.3581 -0.0264 -0.9333
vn 0.9333 -0.0264 0.3581
vn 0.3581 -0.0264 0.9333
vn 0.9333 -0.0264 -0.3581
vn 0.9241 0.1425 -0.3545
vn -0.9241 0.1425 0.3545
vn -0.3516 0.1099 0.9297
vn -0.9273 0.1165 -0.3558
vn 0.0631 -0.9844 0.1644
vn -0.1049 0.9937 -0.0402
vn -0.1049 0.9937 0.0402
vn 0.0631 -0.9844 -0.1644
vn -0.3516 0.1099 -0.9297
vn -0.9273 0.1165 0.3558
vn -0.7946 0.5251 0.3048
vn -0.3048 0.5251 -0.7946
vn -0.7946 0.5251 -0.3048
vn -0.3048 0.5251 0.7946
vn -0.3582 0.0000 0.9336
vn -0.9336 0.0000 -0.3582
vn -0.3582 0.0000 -0.9336
vn -0.9336 0.0000 0.3582
vn -0.3545 0.1425 -0.9241
vn -0.9241 0.1425 -0.3545
vn -0.3545 0.1425 0.9241
vn -0.3582 0.0027 0.9336
vn -0.9336 0.0027 -0.3582
vn -0.3582 0.0027 -0.9336
vn -0.9336 0.0027 0.3582
vn -0.9257 -0.1299 0.3552
vn -0.3552 -0.1299 -0.9257
vn -0.9257 -0.1299 -0.3552
vn -0.3552 -0.1299 0.9257
vn 0.1644 -0.9844 -0.0631
vn 0.1644 -0.9844 0.0631
vn -0.3425 0.2931 0.8926
vn -0.8926 0.2931 -0.3425
vn -0.3425 0.2931 -0.8926
vn -0.8926 0.2931 0.3425
vn -0.0402 0.9937 0.1049
vn -0.0402 0.9937 -0.1049
vn -0.8900 -0.3023 0.3414
vn -0.3441 -0.2773 -0.8970
vn -0.8900 -0.3023 -0.3414
vn -0.3441 -0.2773 0.8970
vn -0.8935 -0.2902 0.3428
vn -0.3428 -0.2902 -0.8935
vn -0.8935 -0.2902 -0.3428
vn -0.3428 -0.2902 0.8935
vn -0.3581 -0.0264 0.9333
vn -0.9333 -0.0264 -0.3581
vn -0.3581 -0.0264 -0.9333
vn -0.9333 -0.0264 0.3581
vn 0.3562 0.1062 -0.9284
vn 0.3562 0.1062 0.9284
vn 0.3390 -0.2863 0.8962
vn 0.3390 -0.2863 -0.8962
vn -0.3562 0.1062 0.9284
vn -0.3562 0.1062 -0.9284
vn -0.3390 -0.2863 -0.8962
vn -0.3390 -0.2863 0.8962
s off
f 41/1/1 4/2/1 31/3/1
f 6/4/2 32/5/2 33/6/2
f 35/7/3 1/8/3 61/9/3
f 66/10/4 2/11/4 6/12/4
f 4/13/5 66/10/5 6/12/5
f 3/14/6 35/7/6 34/15/6
f 2/16/7 99/17/7 32/5/7
f 31/3/8 6/4/8 33/6/8
f 7/18/9 21/19/9 19/20/9
f 8/21/10 39/22/10 20/23/10
f 21/19/11 8/21/11 20/23/11
f 40/24/12 7/18/12 19/20/12
f 36/25/13 10/26/13 24/27/13
f 28/28/14 23/29/14 14/30/14
f 23/29/15 75/31/15 37/32/15
f 27/33/16 15/34/16 13/35/16
f 78/36/17 47/37/17 56/38/17
f 15/39/18 49/40/18 52/41/18
f 50/42/19 38/43/19 17/44/19
f 46/45/20 16/46/20 42/47/20
f 45/48/21 17/44/21 43/49/21
f 17/44/22 44/50/22 43/49/22
f 16/46/23 45/48/23 42/47/23
f 47/37/24 15/39/24 52/41/24
f 49/40/25 37/51/25 53/52/25
f 18/53/26 50/42/26 17/44/26
f 82/54/27 48/55/27 16/46/27
f 3/14/28 5/56/28 35/7/28
f 35/7/29 5/56/29 1/8/29
f 36/57/30 19/20/30 10/58/30
f 12/59/31 20/23/31 11/60/31
f 20/23/32 75/61/32 11/60/32
f 19/20/33 12/59/33 10/58/33
f 4/13/34 65/62/34 66/10/34
f 66/10/35 62/63/35 2/11/35
f 78/64/13 30/65/13 27/33/13
f 26/66/16 24/67/16 25/68/16
f 24/27/16 12/69/16 25/70/16
f 26/66/14 22/71/14 23/72/14
f 25/70/14 11/73/14 22/74/14
f 24/27/13 30/65/13 36/25/13
f 37/32/15 14/30/15 23/29/15
f 23/29/15 22/74/15 75/31/15
f 22/74/15 11/73/15 75/31/15
f 27/75/16 29/76/16 28/77/16
f 30/65/16 26/78/16 29/79/16
f 14/30/14 15/34/14 28/28/14
f 28/28/14 29/79/14 23/29/14
f 29/79/14 26/78/14 23/29/14
f 27/33/13 13/35/13 78/64/13
f 30/65/13 78/64/13 36/25/13
f 31/3/36 9/80/36 7/81/36
f 8/82/37 99/17/37 71/83/37
f 9/80/38 32/5/38 8/82/38
f 41/1/39 7/81/39 69/84/39
f 3/85/40 45/48/40 5/86/40
f 1/87/41 44/50/41 61/88/41
f 45/48/42 1/87/42 5/86/42
f 46/45/43 3/85/43 34/89/43
f 56/38/44 48/55/44 55/90/44
f 52/41/45 50/42/45 51/91/45
f 53/52/46 50/42/46 49/40/46
f 52/41/47 48/55/47 47/37/47
f 48/55/48 18/53/48 16/46/48
f 103/92/49 83/93/49 80/94/49
f 99/17/50 60/95/50 96/96/50
f 64/97/51 97/98/51 98/99/51
f 35/7/52 57/100/52 34/15/52
f 66/10/53 58/101/53 64/102/53
f 60/103/54 66/10/54 64/102/54
f 59/104/55 35/7/55 61/9/55
f 58/105/56 41/1/56 97/98/56
f 96/96/57 64/97/57 98/99/57
f 67/106/58 86/107/58 84/108/58
f 68/109/59 40/24/59 85/110/59
f 86/107/60 68/109/60 85/110/60
f 39/22/61 67/106/61 84/108/61
f 75/31/62 72/111/62 89/112/62
f 93/113/63 88/114/63 77/115/63
f 88/114/64 36/25/64 78/64/64
f 92/116/65 79/117/65 76/118/65
f 105/119/66 82/54/66 81/120/66
f 83/93/67 105/119/67 81/120/67
f 38/43/68 103/92/68 80/94/68
f 44/50/69 80/94/69 100/121/69
f 102/122/70 81/120/70 101/123/70
f 81/120/71 46/45/71 101/123/71
f 80/94/72 102/122/72 100/121/72
f 104/124/73 79/125/73 107/126/73
f 106/127/74 78/36/74 56/38/74
f 79/125/75 106/127/75 107/126/75
f 37/51/76 104/124/76 53/52/76
f 59/104/77 63/128/77 35/7/77
f 35/7/78 63/128/78 57/100/78
f 75/61/79 84/108/79 72/129/79
f 74/130/80 85/110/80 73/131/80
f 85/110/81 36/57/81 73/131/81
f 84/108/82 74/130/82 72/129/82
f 60/103/83 62/63/83 66/10/83
f 66/10/84 65/62/84 58/101/84
f 37/32/62 95/132/62 92/116/62
f 91/133/65 89/134/65 90/135/65
f 89/112/65 74/136/65 90/137/65
f 91/133/63 87/138/63 88/139/63
f 90/137/63 73/140/63 87/141/63
f 89/112/62 95/132/62 75/31/62
f 78/64/64 77/115/64 88/114/64
f 88/114/64 87/141/64 36/25/64
f 87/141/64 73/140/64 36/25/64
f 92/142/65 94/143/65 93/144/65
f 95/132/65 91/145/65 94/146/65
f 77/115/63 79/117/63 93/113/63
f 93/113/63 94/146/63 88/114/63
f 94/146/63 91/145/63 88/114/63
f 92/116/62 76/118/62 37/32/62
f 95/132/62 37/32/62 75/31/62
f 96/96/85 70/147/85 67/148/85
f 68/149/86 41/1/86 69/84/86
f 70/147/87 97/98/87 68/149/87
f 99/17/88 67/148/88 71/83/88
f 59/150/89 102/122/89 63/151/89
f 57/152/90 46/45/90 34/89/90
f 102/122/91 57/152/91 63/151/91
f 44/50/92 59/150/92 61/88/92
f 53/52/93 103/92/93 54/153/93
f 107/126/94 105/119/94 108/154/94
f 105/119/95 56/38/95 55/90/95
f 103/92/96 107/126/96 108/154/96
f 41/1/97 65/155/97 4/2/97
f 6/4/2 2/16/2 32/5/2
f 2/16/98 62/156/98 99/17/98
f 31/3/8 4/2/8 6/4/8
f 7/18/9 9/157/9 21/19/9
f 8/21/10 71/158/10 39/22/10
f 21/19/11 9/157/11 8/21/11
f 40/24/12 69/159/12 7/18/12
f 27/33/16 28/28/16 15/34/16
f 78/36/17 13/160/17 47/37/17
f 15/39/18 14/161/18 49/40/18
f 50/42/19 54/153/19 38/43/19
f 46/45/20 82/54/20 16/46/20
f 45/48/21 18/53/21 17/44/21
f 17/44/22 38/43/22 44/50/22
f 16/46/23 18/53/23 45/48/23
f 47/37/24 13/160/24 15/39/24
f 49/40/25 14/161/25 37/51/25
f 18/53/26 51/91/26 50/42/26
f 82/54/27 55/90/27 48/55/27
f 36/57/30 40/24/30 19/20/30
f 12/59/31 21/19/31 20/23/31
f 20/23/32 39/22/32 75/61/32
f 19/20/33 21/19/33 12/59/33
f 24/27/16 10/26/16 12/69/16
f 26/66/14 25/68/14 22/71/14
f 25/70/14 12/69/14 11/73/14
f 27/75/16 30/162/16 29/76/16
f 30/65/16 24/27/16 26/78/16
f 31/3/36 33/6/36 9/80/36
f 8/82/99 32/5/99 99/17/99
f 9/80/38 33/6/38 32/5/38
f 41/1/100 31/3/100 7/81/100
f 3/85/40 42/47/40 45/48/40
f 1/87/41 43/49/41 44/50/41
f 45/48/42 43/49/42 1/87/42
f 46/45/43 42/47/43 3/85/43
f 56/38/44 47/37/44 48/55/44
f 52/41/45 49/40/45 50/42/45
f 53/52/46 54/153/46 50/42/46
f 52/41/47 51/91/47 48/55/47
f 48/55/48 51/91/48 18/53/48
f 103/92/49 108/154/49 83/93/49
f 99/17/101 62/156/101 60/95/101
f 64/97/51 58/105/51 97/98/51
f 58/105/102 65/155/102 41/1/102
f 96/96/57 60/95/57 64/97/57
f 67/106/58 70/163/58 86/107/58
f 68/109/59 69/159/59 40/24/59
f 86/107/60 70/163/60 68/109/60
f 39/22/61 71/158/61 67/106/61
f 92/116/65 93/113/65 79/117/65
f 105/119/66 55/90/66 82/54/66
f 83/93/67 108/154/67 105/119/67
f 38/43/68 54/153/68 103/92/68
f 44/50/69 38/43/69 80/94/69
f 102/122/70 83/93/70 81/120/70
f 81/120/71 82/54/71 46/45/71
f 80/94/72 83/93/72 102/122/72
f 104/124/73 76/164/73 79/125/73
f 106/127/74 77/165/74 78/36/74
f 79/125/75 77/165/75 106/127/75
f 37/51/76 76/164/76 104/124/76
f 75/61/79 39/22/79 84/108/79
f 74/130/80 86/107/80 85/110/80
f 85/110/81 40/24/81 36/57/81
f 84/108/82 86/107/82 74/130/82
f 89/112/65 72/111/65 74/136/65
f 91/133/63 90/135/63 87/138/63
f 90/137/63 74/136/63 73/140/63
f 92/142/65 95/166/65 94/143/65
f 95/132/65 89/112/65 91/145/65
f 96/96/85 98/99/85 70/147/85
f 68/149/103 97/98/103 41/1/103
f 70/147/87 98/99/87 97/98/87
f 99/17/104 96/96/104 67/148/104
f 59/150/89 100/121/89 102/122/89
f 57/152/90 101/123/90 46/45/90
f 102/122/91 101/123/91 57/152/91
f 44/50/92 100/121/92 59/150/92
f 53/52/93 104/124/93 103/92/93
f 107/126/94 106/127/94 105/119/94
f 105/119/95 106/127/95 56/38/95
f 103/92/96 104/124/96 107/126/96
