# Blender v2.79 (sub 0) OBJ File: 'StoreEnvironment.blend'
# www.blender.org
o Prop_Juice_0_Cube.021
v 0.036236 -0.129973 0.036236
v 0.011779 0.159284 0.011779
v 0.036236 -0.129973 -0.036236
v 0.011779 0.159284 -0.011779
v 0.050138 -0.129973 0.000000
v 0.016299 0.159284 0.000000
v 0.011779 0.136349 -0.011779
v 0.011779 0.136349 0.011779
v 0.016299 0.136349 0.000000
v 0.038505 0.061592 -0.038505
v 0.038505 0.061592 0.038505
v 0.053277 0.061592 0.000000
v 0.038505 0.007346 -0.038505
v 0.038505 0.007346 0.038505
v 0.053277 0.007346 0.000000
v 0.039767 -0.093283 -0.039767
v 0.039767 -0.093283 0.039767
v 0.055024 -0.093283 0.000000
v 0.029634 0.098971 -0.029634
v 0.029634 0.098971 0.029634
v 0.041003 0.098971 0.000000
v 0.038505 0.052720 0.038505
v 0.038505 0.031714 0.038505
v 0.038505 0.052720 -0.038505
v 0.053277 0.052720 0.000000
v 0.053277 0.042217 0.000000
v 0.038505 0.018204 -0.038505
v 0.053277 0.018204 0.000000
v 0.053277 0.031229 0.000000
v 0.038505 0.043212 -0.038505
v 0.013352 0.142541 -0.013163
v 0.013352 0.142541 0.013163
v 0.018402 0.142541 0.000000
v 0.000000 -0.129973 -0.050138
v 0.000000 -0.121602 0.000000
v 0.000000 0.061592 -0.053277
v 0.000000 0.007346 0.053277
v 0.000000 -0.093283 0.055024
v 0.000000 0.098971 0.041003
v 0.000000 0.098971 -0.041003
v 0.000000 0.142541 -0.018213
v 0.039813 -0.114738 -0.039813
v 0.039813 -0.114738 0.039813
v 0.000000 -0.114738 0.055087
v 0.055087 -0.114738 0.000000
v 0.000000 -0.114738 -0.055087
v 0.035579 -0.021494 -0.035579
v 0.034987 -0.050394 -0.034987
v 0.035579 -0.021494 0.035579
v 0.034987 -0.050394 0.034987
v 0.048410 -0.050394 0.000000
v 0.049229 -0.021494 0.000000
v 0.000000 -0.021494 0.049229
v 0.000000 -0.050394 0.048410
v 0.000000 -0.050394 -0.048410
v 0.000000 -0.021494 -0.049229
v -0.036236 -0.129973 -0.036236
v -0.011779 0.159284 -0.011779
v -0.036236 -0.129973 0.036236
v -0.011779 0.159284 0.011779
v 0.000000 -0.129973 0.050138
v 0.000000 0.159284 0.016299
v -0.050138 -0.129973 0.000000
v -0.016299 0.159284 0.000000
v 0.000000 0.159284 -0.016299
v 0.000000 0.161004 0.000000
v -0.011779 0.136349 0.011779
v -0.011779 0.136349 -0.011779
v 0.000000 0.136349 -0.016299
v -0.016299 0.136349 0.000000
v 0.000000 0.136349 0.016299
v -0.038505 0.061592 0.038505
v -0.038505 0.061592 -0.038505
v -0.053277 0.061592 0.000000
v 0.000000 0.061592 0.053277
v -0.038505 0.007346 0.038505
v -0.038505 0.007346 -0.038505
v 0.000000 0.007346 -0.053277
v -0.053277 0.007346 0.000000
v -0.039767 -0.093283 0.039767
v -0.039767 -0.093283 -0.039767
v 0.000000 -0.093283 -0.055024
v -0.055024 -0.093283 0.000000
v -0.029634 0.098971 0.029634
v -0.029634 0.098971 -0.029634
v -0.041003 0.098971 0.000000
v -0.038505 0.052720 -0.038505
v -0.038505 0.031714 -0.038505
v -0.038505 0.052720 0.038505
v -0.053277 0.052720 0.000000
v -0.053277 0.042217 0.000000
v -0.038505 0.018204 0.038505
v -0.053277 0.018204 0.000000
v -0.053277 0.031229 0.000000
v -0.038505 0.043212 0.038505
v -0.013352 0.142541 0.013163
v -0.013352 0.142541 -0.013163
v -0.018402 0.142541 0.000000
v 0.000000 0.142541 0.018213
v -0.039813 -0.114738 0.039813
v -0.039813 -0.114738 -0.039813
v -0.055087 -0.114738 0.000000
v -0.034987 -0.050394 0.034987
v -0.035579 -0.021494 0.035579
v -0.034987 -0.050394 -0.034987
v -0.035579 -0.021494 -0.035579
v -0.049229 -0.021494 0.000000
v -0.048410 -0.050394 0.000000
vt 0.853278 0.940504
vt 0.853278 0.940504
vt 0.853278 0.940504
vt 0.853278 0.940504
vt 0.853278 0.940504
vt 0.853278 0.940504
vt 0.450227 0.568457
vt 0.450227 0.568457
vt 0.450227 0.568457
vt 0.933888 0.940504
vt 0.933888 0.940504
vt 0.933888 0.940504
vt 0.933888 0.940504
vt 0.450227 0.568457
vt 0.450227 0.568457
vt 0.853278 0.940504
vt 0.853278 0.940504
vt 0.577343 0.528152
vt 0.577343 0.528152
vt 0.577343 0.528152
vt 0.577343 0.528152
vt 0.577343 0.528152
vt 0.577343 0.528152
vt 0.577343 0.528152
vt 0.933888 0.940504
vt 0.933888 0.940504
vt 0.933888 0.940504
vt 0.933888 0.940504
vt 0.933888 0.940504
vt 0.933888 0.940504
vt 0.933888 0.940504
vt 0.933888 0.940504
vt 0.933888 0.940504
vt 0.933888 0.940504
vt 0.933888 0.940504
vt 0.577343 0.528152
vt 0.577343 0.528152
vt 0.577343 0.528152
vt 0.577343 0.528152
vt 0.577343 0.528152
vt 0.577343 0.528152
vt 0.577343 0.528152
vt 0.577343 0.528152
vt 0.577343 0.528152
vt 0.571142 0.556055
vt 0.571142 0.556055
vt 0.571142 0.556055
vt 0.571142 0.556055
vt 0.571142 0.556055
vt 0.571142 0.556055
vt 0.571142 0.556055
vt 0.577343 0.528152
vt 0.577343 0.528152
vt 0.577343 0.528152
vt 0.577343 0.528152
vt 0.577343 0.528152
vt 0.577343 0.528152
vt 0.450227 0.568457
vt 0.577343 0.528152
vt 0.577343 0.528152
vt 0.577343 0.528152
vt 0.577343 0.528152
vt 0.577343 0.528152
vt 0.933888 0.940504
vt 0.933888 0.940504
vt 0.933888 0.940504
vt 0.933888 0.940504
vt 0.450227 0.149904
vt 0.450227 0.149904
vt 0.450227 0.149904
vt 0.933888 0.940504
vt 0.933888 0.940504
vt 0.450227 0.149904
vt 0.450227 0.149904
vt 0.933888 0.940504
vt 0.933888 0.940504
vt 0.453327 0.143703
vt 0.453327 0.143703
vt 0.453327 0.143703
vt 0.933888 0.940504
vt 0.933888 0.940504
vt 0.853278 0.940504
vt 0.853278 0.940504
vt 0.853278 0.940504
vt 0.853278 0.940504
vt 0.853278 0.940504
vt 0.571142 0.556055
vt 0.571142 0.556055
vt 0.571142 0.556055
vt 0.571142 0.556055
vt 0.571142 0.556055
vt 0.577343 0.528152
vt 0.577343 0.528152
vt 0.577343 0.528152
vt 0.577343 0.528152
vt 0.577343 0.528152
vt 0.853278 0.940504
vt 0.853278 0.940504
vt 0.853278 0.940504
vt 0.853278 0.940504
vt 0.853278 0.940504
vt 0.450227 0.568457
vt 0.933888 0.940504
vt 0.933888 0.940504
vt 0.933888 0.940504
vt 0.450227 0.568457
vt 0.853278 0.940504
vt 0.577343 0.528152
vt 0.577343 0.528152
vt 0.577343 0.528152
vt 0.577343 0.528152
vt 0.577343 0.528152
vt 0.933888 0.940504
vt 0.933888 0.940504
vt 0.933888 0.940504
vt 0.933888 0.940504
vt 0.933888 0.940504
vt 0.933888 0.940504
vt 0.933888 0.940504
vt 0.933888 0.940504
vt 0.577343 0.528152
vt 0.577343 0.528152
vt 0.571142 0.556055
vt 0.571142 0.556055
vt 0.571142 0.556055
vt 0.571142 0.556055
vt 0.571142 0.556055
vt 0.577343 0.528152
vt 0.577343 0.528152
vt 0.577343 0.528152
vt 0.577343 0.528152
vt 0.450227 0.568457
vt 0.577343 0.528152
vt 0.577343 0.528152
vt 0.577343 0.528152
vt 0.933888 0.940504
vt 0.450227 0.149904
vt 0.450227 0.149904
vt 0.450227 0.149904
vt 0.933888 0.940504
vt 0.933888 0.940504
vt 0.450227 0.149904
vt 0.450227 0.149904
vt 0.933888 0.940504
vt 0.933888 0.940504
vt 0.453327 0.143703
vt 0.453327 0.143703
vt 0.453327 0.143703
vt 0.933888 0.940504
vt 0.933888 0.940504
vt 0.853278 0.940504
vt 0.853278 0.940504
vt 0.853278 0.940504
vt 0.571142 0.556055
vt 0.571142 0.556055
vt 0.571142 0.556055
vt 0.577343 0.528152
vt 0.577343 0.528152
vt 0.853278 0.940504
vt 0.853278 0.940504
vt 0.577343 0.528152
vt 0.577343 0.528152
vt 0.577343 0.528152
vt 0.577343 0.528152
vt 0.577343 0.528152
vt 0.571142 0.556055
vt 0.571142 0.556055
vt 0.571142 0.556055
vt 0.453327 0.143703
vt 0.577343 0.528152
vt 0.571142 0.556055
vt 0.577343 0.528152
vt 0.577343 0.528152
vt 0.453327 0.143703
vn 0.3516 0.1099 -0.9297
vn 0.9273 0.1165 0.3558
vn -0.0631 -0.9844 -0.1644
vn 0.1049 0.9937 0.0402
vn 0.1049 0.9937 -0.0402
vn -0.0631 -0.9844 0.1644
vn 0.3516 0.1099 0.9297
vn 0.9273 0.1165 -0.3558
vn 0.7946 0.5251 -0.3048
vn 0.3048 0.5251 0.7946
vn 0.7946 0.5251 0.3048
vn 0.3048 0.5251 -0.7946
vn 0.3582 0.0000 -0.9336
vn 0.9336 0.0000 0.3582
vn 0.3582 0.0000 0.9336
vn 0.9336 0.0000 -0.3582
vn 0.3552 -0.1299 -0.9257
vn 0.9257 -0.1299 0.3552
vn 0.3545 0.1425 0.9241
vn 0.3582 0.0027 -0.9336
vn 0.9336 0.0027 0.3582
vn 0.3582 0.0027 0.9336
vn 0.9336 0.0027 -0.3582
vn 0.9257 -0.1299 -0.3552
vn 0.3552 -0.1299 0.9257
vn 0.9241 0.1425 0.3545
vn 0.3545 0.1425 -0.9241
vn -0.1644 -0.9844 0.0631
vn -0.1644 -0.9844 -0.0631
vn 0.3425 0.2931 -0.8926
vn 0.8926 0.2931 0.3425
vn 0.3425 0.2931 0.8926
vn 0.8926 0.2931 -0.3425
vn 0.0402 0.9937 -0.1049
vn 0.0402 0.9937 0.1049
vn 0.8900 -0.3023 -0.3414
vn 0.3441 -0.2773 0.8970
vn 0.8900 -0.3023 0.3414
vn 0.3441 -0.2773 -0.8970
vn 0.8935 -0.2902 -0.3428
vn 0.3428 -0.2902 0.8935
vn 0.8935 -0.2902 0.3428
vn 0.3428 -0.2902 -0.8935
vn 0.3581 -0.0264 -0.9333
vn 0.9333 -0.0264 0.3581
vn 0.3581 -0.0264 0.9333
vn 0.9333 -0.0264 -0.3581
vn 0.9241 0.1425 -0.3545
vn -0.9241 0.1425 0.3545
vn -0.3516 0.1099 0.9297
vn -0.9273 0.1165 -0.3558
vn 0.0631 -0.9844 0.1644
vn -0.1049 0.9937 -0.0402
vn -0.1049 0.9937 0.0402
vn 0.0631 -0.9844 -0.1644
vn -0.3516 0.1099 -0.9297
vn -0.9273 0.1165 0.3558
vn -0.7946 0.5251 0.3048
vn -0.3048 0.5251 -0.7946
vn -0.7946 0.5251 -0.3048
vn -0.3048 0.5251 0.7946
vn -0.3582 0.0000 0.9336
vn -0.9336 0.0000 -0.3582
vn -0.3582 0.0000 -0.9336
vn -0.9336 0.0000 0.3582
vn -0.3545 0.1425 -0.9241
vn -0.9241 0.1425 -0.3545
vn -0.3545 0.1425 0.9241
vn -0.3582 0.0027 0.9336
vn -0.9336 0.0027 -0.3582
vn -0.3582 0.0027 -0.9336
vn -0.9336 0.0027 0.3582
vn -0.9257 -0.1299 0.3552
vn -0.3552 -0.1299 -0.9257
vn -0.9257 -0.1299 -0.3552
vn -0.3552 -0.1299 0.9257
vn 0.1644 -0.9844 -0.0631
vn 0.1644 -0.9844 0.0631
vn -0.3425 0.2931 0.8926
vn -0.8926 0.2931 -0.3425
vn -0.3425 0.2931 -0.8926
vn -0.8926 0.2931 0.3425
vn -0.0402 0.9937 0.1049
vn -0.0402 0.9937 -0.1049
vn -0.8900 -0.3023 0.3414
vn -0.3441 -0.2773 -0.8970
vn -0.8900 -0.3023 -0.3414
vn -0.3441 -0.2773 0.8970
vn -0.8935 -0.2902 0.3428
vn -0.3428 -0.2902 -0.8935
vn -0.8935 -0.2902 -0.3428
vn -0.3428 -0.2902 0.8935
vn -0.3581 -0.0264 0.9333
vn -0.9333 -0.0264 -0.3581
vn -0.3581 -0.0264 -0.9333
vn -0.9333 -0.0264 0.3581
vn 0.3562 0.1062 -0.9284
vn 0.3562 0.1062 0.9284
vn 0.3390 -0.2863 0.8962
vn 0.3390 -0.2863 -0.8962
vn -0.3562 0.1062 0.9284
vn -0.3562 0.1062 -0.9284
vn -0.3390 -0.2863 -0.8962
vn -0.3390 -0.2863 0.8962
s off
f 41/1/1 4/2/1 31/3/1
f 6/4/2 32/5/2 33/6/2
f 35/7/3 1/8/3 61/9/3
f 66/10/4 2/11/4 6/12/4
f 4/13/5 66/10/5 6/12/5
f 3/14/6 35/7/6 34/15/6
f 2/16/7 99/17/7 32/5/7
f 31/3/8 6/4/8 33/6/8
f 7/18/9 21/19/9 19/20/9
f 8/21/10 39/22/10 20/23/10
f 21/19/11 8/21/11 20/23/11
f 40/24/12 7/18/12 19/20/12
f 36/25/13 10/26/13 24/27/13
f 28/28/14 23/29/14 14/30/14
f 23/29/15 75/31/15 37/32/15
f 27/33/16 15/34/16 13/35/16
f 78/36/17 47/37/17 56/38/17
f 15/39/18 49/40/18 52/41/18
f 50/42/19 38/43/19 17/44/19
f 46/45/20 16/46/20 42/47/20
f 45/48/21 17/49/21 43/50/21
f 17/49/22 44/51/22 43/50/22
f 16/46/23 45/48/23 42/47/23
f 47/37/24 15/39/24 52/41/24
f 49/40/25 37/52/25 53/53/25
f 18/54/26 50/42/26 17/44/26
f 82/55/27 48/56/27 16/57/27
f 3/14/28 5/58/28 35/7/28
f 35/7/29 5/58/29 1/8/29
f 36/59/30 19/20/30 10/60/30
f 12/61/31 20/23/31 11/62/31
f 20/23/32 75/63/32 11/62/32
f 19/20/33 12/61/33 10/60/33
f 4/13/34 65/64/34 66/10/34
f 66/10/35 62/65/35 2/11/35
f 78/66/13 30/67/13 27/33/13
f 26/68/16 24/69/16 25/70/16
f 24/27/16 12/71/16 25/72/16
f 26/68/14 22/73/14 23/74/14
f 25/72/14 11/75/14 22/76/14
f 24/27/13 30/67/13 36/25/13
f 37/32/15 14/30/15 23/29/15
f 23/29/15 22/76/15 75/31/15
f 22/76/15 11/75/15 75/31/15
f 27/77/16 29/78/16 28/79/16
f 30/67/16 26/80/16 29/81/16
f 14/30/14 15/34/14 28/28/14
f 28/28/14 29/81/14 23/29/14
f 29/81/14 26/80/14 23/29/14
f 27/33/13 13/35/13 78/66/13
f 30/67/13 78/66/13 36/25/13
f 31/3/36 9/82/36 7/83/36
f 8/84/37 99/17/37 71/85/37
f 9/82/38 32/5/38 8/84/38
f 41/1/39 7/83/39 69/86/39
f 3/87/40 45/48/40 5/88/40
f 1/89/41 44/51/41 61/90/41
f 45/48/42 1/89/42 5/88/42
f 46/45/43 3/87/43 34/91/43
f 56/38/44 48/56/44 55/92/44
f 52/41/45 50/42/45 51/93/45
f 53/53/46 50/42/46 49/40/46
f 52/41/47 48/56/47 47/37/47
f 48/56/48 18/54/48 16/57/48
f 103/94/49 83/95/49 80/96/49
f 99/17/50 60/97/50 96/98/50
f 64/99/51 97/100/51 98/101/51
f 35/7/52 57/102/52 34/15/52
f 66/10/53 58/103/53 64/104/53
f 60/105/54 66/10/54 64/104/54
f 59/106/55 35/7/55 61/9/55
f 58/107/56 41/1/56 97/100/56
f 96/98/57 64/99/57 98/101/57
f 67/108/58 86/109/58 84/110/58
f 68/111/59 40/24/59 85/112/59
f 86/109/60 68/111/60 85/112/60
f 39/22/61 67/108/61 84/110/61
f 75/31/62 72/113/62 89/114/62
f 93/115/63 88/116/63 77/117/63
f 88/116/64 36/25/64 78/66/64
f 92/118/65 79/119/65 76/120/65
f 105/121/66 82/55/66 81/122/66
f 83/95/67 105/121/67 81/122/67
f 38/43/68 103/94/68 80/96/68
f 44/51/69 80/123/69 100/124/69
f 102/125/70 81/126/70 101/127/70
f 81/126/71 46/45/71 101/127/71
f 80/123/72 102/125/72 100/124/72
f 104/128/73 79/129/73 107/130/73
f 106/131/74 78/36/74 56/38/74
f 79/129/75 106/131/75 107/130/75
f 37/52/76 104/128/76 53/53/76
f 59/106/77 63/132/77 35/7/77
f 35/7/78 63/132/78 57/102/78
f 75/63/79 84/110/79 72/133/79
f 74/134/80 85/112/80 73/135/80
f 85/112/81 36/59/81 73/135/81
f 84/110/82 74/134/82 72/133/82
f 60/105/83 62/65/83 66/10/83
f 66/10/84 65/64/84 58/103/84
f 37/32/62 95/136/62 92/118/62
f 91/137/65 89/138/65 90/139/65
f 89/114/65 74/140/65 90/141/65
f 91/137/63 87/142/63 88/143/63
f 90/141/63 73/144/63 87/145/63
f 89/114/62 95/136/62 75/31/62
f 78/66/64 77/117/64 88/116/64
f 88/116/64 87/145/64 36/25/64
f 87/145/64 73/144/64 36/25/64
f 92/146/65 94/147/65 93/148/65
f 95/136/65 91/149/65 94/150/65
f 77/117/63 79/119/63 93/115/63
f 93/115/63 94/150/63 88/116/63
f 94/150/63 91/149/63 88/116/63
f 92/118/62 76/120/62 37/32/62
f 95/136/62 37/32/62 75/31/62
f 96/98/85 70/151/85 67/152/85
f 68/153/86 41/1/86 69/86/86
f 70/151/87 97/100/87 68/153/87
f 99/17/88 67/152/88 71/85/88
f 59/154/89 102/125/89 63/155/89
f 57/156/90 46/45/90 34/91/90
f 102/125/91 57/156/91 63/155/91
f 44/51/92 59/154/92 61/90/92
f 53/53/93 103/94/93 54/157/93
f 107/130/94 105/121/94 108/158/94
f 105/121/95 56/38/95 55/92/95
f 103/94/96 107/130/96 108/158/96
f 41/1/97 65/159/97 4/2/97
f 6/4/2 2/16/2 32/5/2
f 2/16/98 62/160/98 99/17/98
f 31/3/8 4/2/8 6/4/8
f 7/18/9 9/161/9 21/19/9
f 8/21/10 71/162/10 39/22/10
f 21/19/11 9/161/11 8/21/11
f 40/24/12 69/163/12 7/18/12
f 27/33/16 28/28/16 15/34/16
f 78/36/17 13/164/17 47/37/17
f 15/39/18 14/165/18 49/40/18
f 50/42/19 54/157/19 38/43/19
f 46/45/20 82/166/20 16/46/20
f 45/48/21 18/167/21 17/49/21
f 17/49/22 38/168/22 44/51/22
f 16/46/23 18/167/23 45/48/23
f 47/37/24 13/164/24 15/39/24
f 49/40/25 14/165/25 37/52/25
f 18/54/26 51/93/26 50/42/26
f 82/55/27 55/92/27 48/56/27
f 36/59/30 40/24/30 19/20/30
f 12/61/31 21/19/31 20/23/31
f 20/23/32 39/22/32 75/63/32
f 19/20/33 21/19/33 12/61/33
f 24/27/16 10/26/16 12/71/16
f 26/68/14 25/70/14 22/73/14
f 25/72/14 12/71/14 11/75/14
f 27/77/16 30/169/16 29/78/16
f 30/67/16 24/27/16 26/80/16
f 31/3/36 33/6/36 9/82/36
f 8/84/99 32/5/99 99/17/99
f 9/82/38 33/6/38 32/5/38
f 41/1/100 31/3/100 7/83/100
f 3/87/40 42/47/40 45/48/40
f 1/89/41 43/50/41 44/51/41
f 45/48/42 43/50/42 1/89/42
f 46/45/43 42/47/43 3/87/43
f 56/38/44 47/37/44 48/56/44
f 52/41/45 49/40/45 50/42/45
f 53/53/46 54/157/46 50/42/46
f 52/41/47 51/93/47 48/56/47
f 48/56/48 51/93/48 18/54/48
f 103/94/49 108/158/49 83/95/49
f 99/17/101 62/160/101 60/97/101
f 64/99/51 58/107/51 97/100/51
f 58/107/102 65/159/102 41/1/102
f 96/98/57 60/97/57 64/99/57
f 67/108/58 70/170/58 86/109/58
f 68/111/59 69/163/59 40/24/59
f 86/109/60 70/170/60 68/111/60
f 39/22/61 71/162/61 67/108/61
f 92/118/65 93/115/65 79/119/65
f 105/121/66 55/92/66 82/55/66
f 83/95/67 108/158/67 105/121/67
f 38/43/68 54/157/68 103/94/68
f 44/51/69 38/168/69 80/123/69
f 102/125/70 83/171/70 81/126/70
f 81/126/71 82/166/71 46/45/71
f 80/123/72 83/171/72 102/125/72
f 104/128/73 76/172/73 79/129/73
f 106/131/74 77/173/74 78/36/74
f 79/129/75 77/173/75 106/131/75
f 37/52/76 76/172/76 104/128/76
f 75/63/79 39/22/79 84/110/79
f 74/134/80 86/109/80 85/112/80
f 85/112/81 40/24/81 36/59/81
f 84/110/82 86/109/82 74/134/82
f 89/114/65 72/113/65 74/140/65
f 91/137/63 90/139/63 87/142/63
f 90/141/63 74/140/63 73/144/63
f 92/146/65 95/174/65 94/147/65
f 95/136/65 89/114/65 91/149/65
f 96/98/85 98/101/85 70/151/85
f 68/153/103 97/100/103 41/1/103
f 70/151/87 98/101/87 97/100/87
f 99/17/104 96/98/104 67/152/104
f 59/154/89 100/124/89 102/125/89
f 57/156/90 101/127/90 46/45/90
f 102/125/91 101/127/91 57/156/91
f 44/51/92 100/124/92 59/154/92
f 53/53/93 104/128/93 103/94/93
f 107/130/94 106/131/94 105/121/94
f 105/121/95 106/131/95 56/38/95
f 103/94/96 104/128/96 107/130/96
